<svg width="22" height="22" viewBox="0 0 22 22" fill="none" xmlns="http://www.w3.org/2000/svg">
<path d="M9.15694 4.96084C9.15694 4.50321 9.33873 4.06433 9.66232 3.74074C9.98592 3.41714 10.4248 3.23535 10.8824 3.23535C11.3401 3.23535 11.7789 3.41714 12.1025 3.74074C12.4261 4.06433 12.6079 4.50321 12.6079 4.96084C13.5987 5.42934 14.4433 6.15861 15.0513 7.07051C15.6592 7.98241 16.0075 9.04255 16.0589 10.1373V12.7255C16.1238 13.2619 16.3138 13.7756 16.6135 14.2251C16.9132 14.6747 17.3142 15.0476 17.7844 15.3138H3.98047C4.45061 15.0476 4.85168 14.6747 5.15138 14.2251C5.45107 13.7756 5.64103 13.2619 5.70596 12.7255V10.1373C5.75734 9.04255 6.10567 7.98241 6.7136 7.07051C7.32153 6.15861 8.16615 5.42934 9.15694 4.96084" stroke="#263643" stroke-width="1.29412" stroke-linecap="round" stroke-linejoin="round"/>
<path d="M8.29688 15.3145V16.1772C8.29688 16.8636 8.56956 17.522 9.05495 18.0074C9.54034 18.4927 10.1987 18.7654 10.8851 18.7654C11.5716 18.7654 12.2299 18.4927 12.7153 18.0074C13.2007 17.522 13.4733 16.8636 13.4733 16.1772V15.3145" stroke="#263643" stroke-width="1.29412" stroke-linecap="round" stroke-linejoin="round"/>
</svg>
