<svg width="87" height="87" viewBox="0 0 87 87" fill="none" xmlns="http://www.w3.org/2000/svg">
<circle cx="43.5" cy="43.5" r="43.5" fill="#FFEDF0"/>
<path d="M29.6146 62.248H54.4181C55.3091 62.248 56.1121 61.797 56.464 61.104C56.739 60.5431 56.684 59.9161 56.31 59.3881L50.3374 51.5456L44.8597 44.352V37.7194C44.8597 36.3885 45.3657 35.1455 46.2896 34.1996C46.3776 34.1116 46.4326 33.9906 46.4326 33.8696V32.3847C46.4326 32.3407 46.4216 32.2967 46.4106 32.2637C46.4106 32.2417 46.3996 32.2197 46.3886 32.1977C46.0696 31.0978 42.9898 31.0098 42.0219 31.0098C41.0209 31.0098 37.7761 31.1088 37.6331 32.2857C37.6221 32.3077 37.6221 32.3517 37.6221 32.3847V33.8586C37.6221 33.9796 37.6661 34.1116 37.7541 34.1886C38.678 35.1125 39.195 36.3995 39.195 37.7084V44.341L33.9593 51.2046L27.7337 59.3991C27.3597 59.9161 27.2937 60.5431 27.5797 61.104C27.9317 61.797 28.7236 62.248 29.6146 62.248ZM42.0219 31.9667C43.6278 31.9667 44.7387 32.1867 45.2337 32.3737C44.7387 32.5717 43.6278 32.7917 42.0219 32.7917C40.405 32.7917 39.294 32.5717 38.799 32.3737C39.294 32.1977 40.405 31.9667 42.0219 31.9667ZM28.5036 59.9821L34.8063 51.6996L35.5212 50.7536L36.3022 49.7307L40.064 44.792C40.13 44.704 40.174 44.605 40.174 44.495V37.6974C40.174 36.2015 39.591 34.7386 38.6011 33.6496V33.2976C39.679 33.6936 41.3729 33.7376 42.0549 33.7376C42.7258 33.7376 44.4307 33.6936 45.5087 33.2976V33.6386C44.4857 34.7496 43.9357 36.1795 43.9357 37.6974V44.495C43.9357 44.605 43.9577 44.693 44.0347 44.792L47.7965 49.7307L49.2814 51.6996L49.3914 51.8316L55.5841 59.9601C55.7931 60.2571 55.7381 60.4991 55.6611 60.6641C55.5181 60.9501 55.1221 61.28 54.4621 61.28H29.6146C28.9656 61.28 28.5586 60.9501 28.4266 60.6641C28.3496 60.5101 28.3056 60.2571 28.5036 59.9821Z" fill="#D85A6E"/>
<path d="M42.0236 48.2356C42.6505 48.2356 43.1565 47.7187 43.1565 47.0807C43.1565 46.4428 42.6505 45.9258 42.0236 45.9258C41.3966 45.9258 40.8906 46.4428 40.8906 47.0807C40.8906 47.7187 41.3966 48.2356 42.0236 48.2356Z" fill="#D85A6E"/>
<path d="M42.7462 28.722C43.3732 28.722 43.8792 28.205 43.8792 27.567C43.8792 26.9291 43.3732 26.4121 42.7462 26.4121C42.1193 26.4121 41.6133 26.9291 41.6133 27.567C41.6133 28.205 42.1193 28.722 42.7462 28.722Z" fill="#D85A6E"/>
<path d="M44.9248 24.5423C45.8927 24.5423 46.6737 23.7394 46.6737 22.7604C46.6737 21.7815 45.8817 20.9785 44.9248 20.9785C43.9568 20.9785 43.1759 21.7815 43.1759 22.7604C43.1649 23.7504 43.9568 24.5423 44.9248 24.5423Z" fill="#D85A6E"/>
<path d="M49.7668 26.1699C50.6467 26.1699 51.3617 25.4439 51.3617 24.542C51.3617 23.64 50.6467 22.9141 49.7668 22.9141C48.8868 22.9141 48.1719 23.64 48.1719 24.542C48.1719 25.4439 48.8868 26.1699 49.7668 26.1699Z" fill="#D85A6E"/>
<path d="M54.4178 60.3231C54.4838 60.3231 54.5498 60.3121 54.5938 60.3011L48.4891 52.2936L48.3131 52.0626C46.3993 52.4585 44.1224 52.6015 42.6375 51.6446C40.7566 50.4347 38.8537 50.1927 36.9178 50.4677C36.9178 50.4677 36.9178 50.4677 36.9068 50.4677L36.2578 51.3366L35.5429 52.2826L29.4492 60.3011C29.4932 60.3121 29.5592 60.3231 29.6142 60.3231H54.4178ZM48.6101 57.5843C49.1051 57.5843 49.5121 57.9912 49.5121 58.4972C49.5121 59.0032 49.1051 59.4101 48.6101 59.4101C48.1042 59.4101 47.6972 59.0032 47.6972 58.4972C47.6972 57.9912 48.1042 57.5843 48.6101 57.5843ZM43.1764 54.4164C43.8034 54.4164 44.3094 54.9334 44.3094 55.5824C44.3094 56.2203 43.8034 56.7373 43.1764 56.7373C42.5385 56.7373 42.0325 56.2203 42.0325 55.5824C42.0215 54.9334 42.5385 54.4164 43.1764 54.4164ZM37.4898 55.5824C38.3697 55.5824 39.0957 56.3083 39.0957 57.2103C39.0957 58.1012 38.3697 58.8272 37.4898 58.8272C36.6098 58.8272 35.8839 58.1012 35.8839 57.2103C35.8839 56.3083 36.6098 55.5824 37.4898 55.5824Z" fill="#D85A6E"/>
</svg>
