<svg width="21" height="21" viewBox="0 0 21 21" fill="none" xmlns="http://www.w3.org/2000/svg">
<path d="M9.492 0.789062H5.753C2.678 0.789062 0.75 2.96606 0.75 6.04806V14.3621C0.75 17.4441 2.669 19.6211 5.753 19.6211H14.577C17.662 19.6211 19.581 17.4441 19.581 14.3621V10.3341" stroke="#4E4B66" stroke-width="1.5" stroke-linecap="round" stroke-linejoin="round"/>
<path fill-rule="evenodd" clip-rule="evenodd" d="M6.82666 8.9205L14.2997 1.4475C15.2307 0.5175 16.7397 0.5175 17.6707 1.4475L18.8877 2.6645C19.8187 3.5955 19.8187 5.1055 18.8877 6.0355L11.3787 13.5445C10.9717 13.9515 10.4197 14.1805 9.84366 14.1805H6.09766L6.19166 10.4005C6.20566 9.8445 6.43266 9.3145 6.82666 8.9205Z" stroke="#4E4B66" stroke-width="1.5" stroke-linecap="round" stroke-linejoin="round"/>
<path d="M13.1641 2.60254L17.7301 7.16854" stroke="#4E4B66" stroke-width="1.5" stroke-linecap="round" stroke-linejoin="round"/>
</svg>
