<svg width="12" height="12" viewBox="0 0 12 12" fill="none" xmlns="http://www.w3.org/2000/svg">
<path d="M6.00349 9.12151C9.09598 9.12151 11.1752 6.62793 11.1752 5.85575C11.1752 5.08357 9.08845 2.59375 6.00349 2.59375C2.95619 2.59375 0.824219 5.08357 0.824219 5.85575C0.824219 6.62793 2.94866 9.12151 6.00349 9.12151ZM6.00349 8.38323C3.60031 8.38323 1.6981 6.38309 1.6981 5.85575C1.6981 5.41504 3.60031 3.33203 6.00349 3.33203C8.39537 3.33203 10.3013 5.41504 10.3013 5.85575C10.3013 6.38309 8.39537 8.38323 6.00349 8.38323ZM6.00349 7.87849C7.12598 7.87849 8.02623 6.95564 8.02623 5.85575C8.02623 4.72949 7.12598 3.83677 6.00349 3.83677C4.87347 3.83677 3.96945 4.72949 3.97321 5.85575C3.98075 6.95564 4.87347 7.87849 6.00349 7.87849ZM5.99972 6.50739C5.63811 6.50739 5.34431 6.21359 5.34431 5.85575C5.34431 5.49791 5.63811 5.2041 5.99972 5.2041C6.36133 5.2041 6.65513 5.49791 6.65513 5.85575C6.65513 6.21359 6.36133 6.50739 5.99972 6.50739Z" fill="#4E4B66"/>
</svg>
