<svg width="24" height="24" viewBox="0 0 24 24" fill="none" xmlns="http://www.w3.org/2000/svg">
<path d="M12.9997 3C9.22972 3 6.18972 5.95 5.99972 9.66L4.07972 12.19C3.83972 12.5 4.07972 13 4.49972 13H5.99972V16C5.99972 17.11 6.88972 18 7.99972 18H8.99972V21H15.9997V16.31C18.3697 15.19 19.9997 12.8 19.9997 10C19.9997 6.14 16.8797 3 12.9997 3ZM13.9997 14H11.9997V13H13.9997V14ZM15.5997 9.5C15.3334 9.94967 14.9542 10.322 14.4997 10.58V12H11.4997V10.58C10.0697 9.75 9.56972 7.92 10.3997 6.5C11.2297 5.08 13.0697 4.56 14.4997 5.38C15.9297 6.2 16.4297 8.05 15.5997 9.5Z" fill="#14142B"/>
</svg>
