<svg width="87" height="87" viewBox="0 0 87 87" fill="none" xmlns="http://www.w3.org/2000/svg">
<circle cx="43.5" cy="43.5" r="43.5" fill="#EDFBFF"/>
<path d="M33.4365 25C28.7618 25 25 28.8058 25 33.4365C25 38.1113 28.8058 41.873 33.4365 41.873C38.1113 41.873 41.873 38.0673 41.873 33.4365C41.906 28.8058 38.1113 25 33.4365 25ZM33.4365 40.3551C29.6307 40.3551 26.5179 37.2423 26.5179 33.4365C26.5179 29.6307 29.6307 26.5179 33.4365 26.5179C37.2423 26.5179 40.3551 29.6307 40.3551 33.4365C40.3551 37.2753 37.2753 40.3551 33.4365 40.3551Z" fill="#288BAC"/>
<path d="M33.4365 44.1943C28.7618 44.1943 25 48.0001 25 52.6309C25 57.3056 28.8058 61.0674 33.4365 61.0674C38.1113 61.0674 41.873 57.2616 41.873 52.6309C41.906 48.0001 38.1113 44.1943 33.4365 44.1943ZM33.4365 59.5935C29.6307 59.5935 26.5179 56.4806 26.5179 52.6749C26.5179 48.8691 29.6307 45.7562 33.4365 45.7562C37.2423 45.7562 40.3551 48.8691 40.3551 52.6749C40.3551 56.4806 37.2753 59.5935 33.4365 59.5935Z" fill="#288BAC"/>
<path d="M52.6631 25C47.9883 25 44.2266 28.8058 44.2266 33.4365C44.2266 38.1113 48.0323 41.873 52.6631 41.873C57.3378 41.873 61.0996 38.0673 61.0996 33.4365C61.1106 28.8058 57.3048 25 52.6631 25ZM52.6631 40.3551C48.8573 40.3551 45.7445 37.2423 45.7445 33.4365C45.7445 29.6307 48.8573 26.5179 52.6631 26.5179C56.4689 26.5179 59.5817 29.6307 59.5817 33.4365C59.5927 37.2753 56.4689 40.3551 52.6631 40.3551Z" fill="#288BAC"/>
<path d="M52.6631 44.1943C47.9883 44.1943 44.2266 48.0001 44.2266 52.6309C44.2266 57.3056 48.0323 61.0674 52.6631 61.0674C57.3378 61.0674 61.0996 57.2616 61.0996 52.6309C61.0996 48.0001 57.3048 44.1943 52.6631 44.1943ZM52.6631 59.5935C48.8573 59.5935 45.7445 56.4806 45.7445 52.6749C45.7445 48.8691 48.8573 45.7562 52.6631 45.7562C56.4689 45.7562 59.5817 48.8691 59.5817 52.6749C59.5817 56.4806 56.4689 59.5935 52.6631 59.5935Z" fill="#288BAC"/>
<path d="M55.6004 32.4902H49.7048C49.1768 32.4902 48.7148 32.9412 48.7148 33.4802C48.7148 34.0081 49.1658 34.4701 49.7048 34.4701H55.6004C56.1284 34.4701 56.5904 34.0191 56.5904 33.4802C56.5794 32.9082 56.1614 32.4902 55.6004 32.4902Z" fill="#288BAC"/>
<path d="M55.6004 49.7158H49.7048C49.1768 49.7158 48.7148 50.1668 48.7148 50.7058C48.7148 51.2337 49.1658 51.6957 49.7048 51.6957H55.6004C56.1284 51.6957 56.5904 51.2447 56.5904 50.7058C56.5794 50.1668 56.1614 49.7158 55.6004 49.7158Z" fill="#288BAC"/>
<path d="M55.6004 53.6318H49.7048C49.1768 53.6318 48.7148 54.0828 48.7148 54.6218C48.7148 55.1497 49.1658 55.6117 49.7048 55.6117H55.6004C56.1284 55.6117 56.5904 55.1607 56.5904 54.6218C56.5794 54.0828 56.1614 53.6318 55.6004 53.6318Z" fill="#288BAC"/>
<path d="M36.3944 32.4903H34.4146V30.5105C34.4146 29.9825 33.9636 29.5205 33.4246 29.5205C32.8966 29.5205 32.4347 29.9715 32.4347 30.5105V32.4903H30.4548C29.9268 32.4903 29.4648 32.9413 29.4648 33.4803C29.4648 34.0083 29.9158 34.4702 30.4548 34.4702H32.4347V36.4501C32.4347 36.9781 32.8856 37.4401 33.4246 37.4401C33.9526 37.4401 34.4146 36.9891 34.4146 36.4501V34.4702H36.3944C36.9224 34.4702 37.3844 34.0193 37.3844 33.4803C37.3844 32.9083 36.9334 32.4903 36.3944 32.4903Z" fill="#288BAC"/>
<path d="M36.2074 49.903C35.8224 49.518 35.2175 49.518 34.8435 49.903L33.4356 51.3109L32.0277 49.903C31.6427 49.518 31.0377 49.518 30.6637 49.903C30.2898 50.288 30.2788 50.8929 30.6637 51.2669L32.0717 52.6748L30.6637 54.0828C30.2788 54.4677 30.2788 55.0727 30.6637 55.4467C31.0487 55.8317 31.6537 55.8317 32.0277 55.4467L33.4356 54.0388L34.8435 55.4467C35.2285 55.8317 35.8334 55.8317 36.2074 55.4467C36.5924 55.0617 36.5924 54.4567 36.2074 54.0828L34.7995 52.6748L36.2074 51.2669C36.6254 50.8929 36.6254 50.277 36.2074 49.903Z" fill="#288BAC"/>
</svg>
