<svg width="87" height="87" viewBox="0 0 87 87" fill="none" xmlns="http://www.w3.org/2000/svg">
<circle cx="43.5" cy="43.5" r="43.5" fill="#FFF3EC"/>
<path d="M42.8922 41.5898C41.3523 41.5898 40.1094 42.8328 40.1094 44.3727C40.1094 45.9126 41.3523 47.1555 42.8922 47.1555C44.4321 47.1555 45.6751 45.9126 45.6751 44.3727C45.6751 42.8328 44.4321 41.5898 42.8922 41.5898Z" fill="#FFAD7A"/>
<path d="M55.5405 57.9912C56.4517 57.9912 57.1904 57.2525 57.1904 56.3413C57.1904 55.4301 56.4517 54.6914 55.5405 54.6914C54.6293 54.6914 53.8906 55.4301 53.8906 56.3413C53.8906 57.2525 54.6293 57.9912 55.5405 57.9912Z" fill="#FFAD7A"/>
<path d="M25.8296 51.501C26.7408 51.501 27.4795 50.7623 27.4795 49.8511C27.4795 48.9399 26.7408 48.2012 25.8296 48.2012C24.9184 48.2012 24.1797 48.9399 24.1797 49.8511C24.1797 50.7623 24.9184 51.501 25.8296 51.501Z" fill="#FFAD7A"/>
<path d="M55.7373 44.2197C61.006 39.611 62.8539 35.5522 61.611 33.4074C60.368 31.2625 55.9463 30.8335 49.3137 33.0884C49.1267 32.1204 48.9067 31.2295 48.6647 30.3935C48.2577 30.6465 47.7958 30.7895 47.3228 30.8225C47.5538 31.6695 47.7738 32.5934 47.9608 33.5724C46.2339 34.2323 44.54 34.9803 42.879 35.8162C41.2291 34.9803 39.5242 34.2323 37.7973 33.5724C38.9523 27.6217 40.9872 23.9479 42.879 23.9479C43.627 23.9479 44.386 24.5309 45.1229 25.5758C45.4639 25.2788 45.8599 25.0588 46.2999 24.9378C45.2329 23.3869 44.045 22.584 42.879 22.584C40.4042 22.584 37.8193 26.2028 36.4554 33.0774C29.8228 30.8225 25.401 31.2515 24.1581 33.3964C22.9152 35.5412 24.7631 39.589 30.0318 44.2087C28.9868 45.1217 27.9969 46.0896 27.0839 47.1236C27.5129 47.3216 27.8869 47.6185 28.1729 47.9925C29.0968 46.9806 30.0868 46.0126 31.1317 45.1217C32.5726 46.2876 34.0685 47.3876 35.6195 48.3995C35.7185 50.2474 35.9274 52.0953 36.2134 53.9212C30.4828 55.8901 26.292 55.9671 25.335 54.3282C25.0931 53.8442 25.0491 53.2942 25.1921 52.7773C24.7521 52.6783 24.3451 52.4913 23.9821 52.2053C23.6521 53.1292 23.7181 54.1412 24.1471 55.0101C24.8181 56.1761 26.424 56.836 28.8219 56.836C31.4287 56.748 34.0026 56.2311 36.4554 55.3291C37.8193 62.1927 40.4042 65.8225 42.879 65.8225C45.3539 65.8225 47.9388 62.2037 49.3027 55.3291C50.4466 55.7141 51.5246 56.0221 52.5255 56.2641C52.5365 55.7911 52.6685 55.3181 52.8885 54.9001C51.8435 54.6581 50.7326 54.3282 49.5337 53.9212C49.8307 52.0953 50.0286 50.2474 50.1276 48.3995C51.6785 47.3876 53.1745 46.2876 54.6154 45.1217C59.1911 49.0925 61.358 52.6893 60.401 54.3392C59.9171 54.9881 59.1581 55.3731 58.3552 55.4061C58.5201 55.8241 58.5532 56.2861 58.4762 56.726C59.7191 56.66 60.863 56.0331 61.578 55.0101C62.8539 52.8762 61.006 48.8285 55.7373 44.2197ZM35.5425 46.6946C34.3435 45.8697 33.2436 45.0337 32.2317 44.2087C33.2436 43.3838 34.3435 42.5588 35.5425 41.7229C35.5205 42.5258 35.4985 43.3508 35.4985 44.2087C35.4985 45.0667 35.5095 45.8916 35.5425 46.6946ZM35.6305 40.029C34.0795 41.0409 32.5836 42.1409 31.1427 43.3068C26.567 39.336 24.4001 35.7392 25.346 34.0893C25.786 33.3194 26.941 32.9234 28.6349 32.9234C31.2307 33.0444 33.7936 33.5724 36.2244 34.4853C35.9274 36.3222 35.7295 38.1701 35.6305 40.029ZM48.2247 34.9803C48.4337 36.2672 48.5987 37.6421 48.7197 39.094C48.0378 38.6761 47.3338 38.2471 46.5968 37.8181C45.8599 37.3891 45.1339 36.9822 44.419 36.6082C45.7389 35.9812 47.0038 35.4422 48.2247 34.9803ZM37.5554 34.9803C38.7653 35.4422 40.0412 35.9812 41.3611 36.6082C40.6462 36.9822 39.9202 37.3891 39.1833 37.8181C38.4463 38.2471 37.7313 38.6651 37.0604 39.094C37.1814 37.6311 37.3464 36.2672 37.5554 34.9803ZM37.0714 49.3455C37.7533 49.7634 38.4683 50.1924 39.1943 50.6214C39.9312 51.0504 40.6572 51.4463 41.3721 51.8203C40.0522 52.4473 38.7873 52.9862 37.5664 53.4482C37.3574 52.1723 37.1924 50.7974 37.0714 49.3455ZM42.89 64.4806C40.9982 64.4806 38.9633 60.8068 37.8083 54.8671C39.5352 54.2072 41.2401 53.4592 42.89 52.6233C44.54 53.4592 46.2449 54.2072 47.9718 54.8671C46.8168 60.8068 44.7819 64.4806 42.89 64.4806ZM48.2247 53.4592C47.0148 52.9972 45.7389 52.4583 44.419 51.8313C45.1339 51.4463 45.8489 51.0614 46.5968 50.6324C47.3338 50.2034 48.0488 49.7854 48.7197 49.3565C48.5987 50.7974 48.4337 52.1723 48.2247 53.4592ZM48.8297 47.6516C47.9058 48.2565 46.9378 48.8615 45.9149 49.4554C44.8919 50.0494 43.88 50.5774 42.89 51.0834C41.9001 50.5774 40.8992 50.0494 39.8762 49.4554C38.8533 48.8615 37.8853 48.2565 36.9504 47.6516C36.8954 46.5406 36.8514 45.4077 36.8514 44.2197C36.8514 43.0318 36.8954 41.8989 36.9504 40.7879C37.8853 40.183 38.8423 39.578 39.8762 38.984C40.8992 38.3901 41.9111 37.8511 42.89 37.3561C43.88 37.8621 44.8809 38.4011 45.9039 38.984C46.9268 39.567 47.8948 40.183 48.8187 40.7879C48.8737 41.8989 48.9177 43.0318 48.9177 44.2197C48.9177 45.4077 48.8957 46.5406 48.8297 47.6516ZM50.2486 46.7056C50.2706 45.9026 50.2926 45.0777 50.2926 44.2197C50.2926 43.3618 50.2816 42.5478 50.2486 41.7339C51.4476 42.5588 52.5475 43.3838 53.5594 44.2087C52.5475 45.0447 51.4476 45.8697 50.2486 46.7056ZM50.1496 40.029C50.0506 38.1811 49.8417 36.3332 49.5557 34.4963C51.9865 33.5834 54.5494 33.0554 57.1452 32.9344C58.8391 32.9344 59.9831 33.3304 60.434 34.1003C61.38 35.7392 59.2131 39.336 54.6484 43.3178C53.2075 42.1299 51.7115 41.0409 50.1496 40.029Z" fill="#FFAD7A"/>
<path d="M47.0913 29.5029C48.0025 29.5029 48.7412 28.7642 48.7412 27.853C48.7412 26.9418 48.0025 26.2031 47.0913 26.2031C46.1801 26.2031 45.4414 26.9418 45.4414 27.853C45.4414 28.7642 46.1801 29.5029 47.0913 29.5029Z" fill="#FFAD7A"/>
</svg>
