<svg width="44" height="44" viewBox="0 0 44 44" fill="none" xmlns="http://www.w3.org/2000/svg">
<rect width="44" height="44" rx="4" fill="#3C8DCB"/>
<path d="M21.464 31.24C20.152 31.24 18.896 31.056 17.696 30.688C16.496 30.304 15.544 29.816 14.84 29.224L15.92 26.8C16.592 27.328 17.424 27.768 18.416 28.12C19.408 28.472 20.424 28.648 21.464 28.648C22.344 28.648 23.056 28.552 23.6 28.36C24.144 28.168 24.544 27.912 24.8 27.592C25.056 27.256 25.184 26.88 25.184 26.464C25.184 25.952 25 25.544 24.632 25.24C24.264 24.92 23.784 24.672 23.192 24.496C22.616 24.304 21.968 24.128 21.248 23.968C20.544 23.808 19.832 23.624 19.112 23.416C18.408 23.192 17.76 22.912 17.168 22.576C16.592 22.224 16.12 21.76 15.752 21.184C15.384 20.608 15.2 19.872 15.2 18.976C15.2 18.064 15.44 17.232 15.92 16.48C16.416 15.712 17.16 15.104 18.152 14.656C19.16 14.192 20.432 13.96 21.968 13.96C22.976 13.96 23.976 14.088 24.968 14.344C25.96 14.6 26.824 14.968 27.56 15.448L26.576 17.872C25.824 17.424 25.048 17.096 24.248 16.888C23.448 16.664 22.68 16.552 21.944 16.552C21.08 16.552 20.376 16.656 19.832 16.864C19.304 17.072 18.912 17.344 18.656 17.68C18.416 18.016 18.296 18.4 18.296 18.832C18.296 19.344 18.472 19.76 18.824 20.08C19.192 20.384 19.664 20.624 20.24 20.8C20.832 20.976 21.488 21.152 22.208 21.328C22.928 21.488 23.64 21.672 24.344 21.88C25.064 22.088 25.712 22.36 26.288 22.696C26.88 23.032 27.352 23.488 27.704 24.064C28.072 24.64 28.256 25.368 28.256 26.248C28.256 27.144 28.008 27.976 27.512 28.744C27.032 29.496 26.288 30.104 25.28 30.568C24.272 31.016 23 31.24 21.464 31.24Z" fill="#FCFCFC"/>
</svg>
